<svg width="64" height="64" viewBox="0 0 81 80" fill="none" xmlns="http://www.w3.org/2000/svg">
  <g clip-path="url(#clip0_640_1306)">
    <circle cx="40.5176" cy="40" r="40" fill="#009DDB"/>
    <path d="M30.9883 51.6887L51.237 31.6873C53.003 29.9629 55.2738 28.8309 57.7278 28.4516C60.1818 28.0723 62.6944 28.4651 64.9097 29.5741C67.125 30.6831 68.9307 32.4523 70.0708 34.6309C71.2109 36.8094 71.6277 39.287 71.2621 41.7124C70.8965 44.1379 69.7671 46.3883 68.0338 48.1447C66.3006 49.9012 64.0514 51.0747 61.605 51.4989C59.1586 51.9231 56.639 51.5765 54.4032 50.5082C52.1674 49.44 50.3288 47.7043 49.1479 45.547V45.5045L49.2319 45.461L53.1765 41.5616C53.3952 42.4306 53.792 43.2462 54.3424 43.9579C54.8929 44.6696 55.5852 45.2624 56.3767 45.6996V45.6996C57.3561 46.2307 58.4554 46.5089 59.5728 46.5084H59.6271C60.7214 46.5097 61.7991 46.2441 62.7644 45.7352C63.7297 45.2263 64.5527 44.4898 65.1603 43.5913C65.7678 42.6927 66.1411 41.6599 66.247 40.5846C66.3529 39.5093 66.188 38.4248 65.7671 37.4276C65.3462 36.4303 64.6823 35.5512 63.8343 34.8683C62.9863 34.1854 61.9806 33.7198 60.9065 33.5131C59.8324 33.3063 58.7232 33.3647 57.6775 33.6831C56.6318 34.0014 55.6819 34.5699 54.9123 35.338L38.3687 51.6887H30.9883Z" fill="white"/>
    <path d="M50.3004 28.311L29.935 48.0896C28.1581 49.7969 25.8726 50.9183 23.4023 51.2947C20.9321 51.6711 18.4024 51.2835 16.1718 50.1868C13.9412 49.0901 12.1228 47.3399 10.9743 45.1843C9.82581 43.0287 9.40545 40.5769 9.77281 38.1765C10.1402 35.7761 11.2766 33.5488 13.0211 31.8101C14.7655 30.0715 17.0296 28.9098 19.4923 28.4896C21.955 28.0694 24.4916 28.412 26.7425 29.469C28.9934 30.5259 30.8444 32.2435 32.0334 34.3784V34.4024L31.9499 34.4453L27.9778 38.3173C27.7563 37.4548 27.3543 36.6458 26.7968 35.9407C26.2393 35.2355 25.5381 34.6493 24.7371 34.2184V34.2184C23.7524 33.6966 22.6482 33.4236 21.5262 33.4246H21.4716C20.3707 33.4213 19.286 33.6821 18.3139 34.1837C17.3418 34.6854 16.5125 35.4123 15.8997 36.3C15.2869 37.1876 14.9095 38.2085 14.8012 39.2718C14.6929 40.335 14.857 41.4078 15.2788 42.3948C15.7007 43.3817 16.3672 44.2522 17.2193 44.9288C18.0713 45.6055 19.0824 46.0673 20.1627 46.2733C21.243 46.4793 22.359 46.4231 23.4116 46.1096C24.4641 45.7962 25.4205 45.2352 26.1957 44.4766L42.8619 28.311H50.3004Z" fill="white"/>
  </g>
  <defs>
    <clipPath id="clip0_640_1306">
      <rect width="80" height="80" fill="white" transform="translate(0.517578)"/>
    </clipPath>
  </defs>
</svg>
