<svg width="16" height="16" viewBox="0 0 16 16" fill="none" xmlns="http://www.w3.org/2000/svg">
  <path d="M8 0.25C3.72009 0.25 0.25 3.72134 0.25 8C0.25 12.2812 3.72009 15.75 8 15.75C12.2799 15.75 15.75 12.2812 15.75 8C15.75 3.72134 12.2799 0.25 8 0.25ZM8 14.25C4.54588 14.25 1.75 11.4553 1.75 8C1.75 4.54703 4.546 1.75 8 1.75C11.4528 1.75 14.25 4.54597 14.25 8C14.25 11.4541 11.4553 14.25 8 14.25ZM11.3514 6.275C11.3514 8.37037 9.08822 8.40263 9.08822 9.17697V9.375C9.08822 9.58209 8.92031 9.75 8.71322 9.75H7.28675C7.07966 9.75 6.91175 9.58209 6.91175 9.375V9.10441C6.91175 7.98738 7.75863 7.54084 8.39859 7.18203C8.94738 6.87437 9.28372 6.66512 9.28372 6.25769C9.28372 5.71875 8.59625 5.36103 8.04047 5.36103C7.31581 5.36103 6.98128 5.70406 6.51103 6.29756C6.38425 6.45756 6.15291 6.48728 5.99022 6.36394L5.12072 5.70463C4.96113 5.58363 4.92537 5.35881 5.03809 5.19328C5.77644 4.10909 6.71688 3.5 8.18106 3.5C9.71453 3.5 11.3514 4.697 11.3514 6.275ZM9.3125 11.5C9.3125 12.2237 8.72372 12.8125 8 12.8125C7.27628 12.8125 6.6875 12.2237 6.6875 11.5C6.6875 10.7763 7.27628 10.1875 8 10.1875C8.72372 10.1875 9.3125 10.7763 9.3125 11.5Z" fill="#909EBB"/>
</svg>
