<svg width="56" height="56" viewBox="0 0 56 56" fill="none" xmlns="http://www.w3.org/2000/svg">
<path d="M28 56C43.5 56 56 43.5 56 28C56 12.5 43.5 0 28 0C12.5 0 0 12.5 0 28C0 43.5 12.5 56 28 56Z" fill="#EFF0F2"/>
<path d="M19 37H18V38H19V37ZM37 37V38H38V37H37ZM28 17.2L28.5787 16.3844L28 15.9737L27.4212 16.3844L28 17.2ZM28 30.2L28.5787 29.3844L28 28.9737L27.4212 29.3844L28 30.2ZM18 23V37H20V23H18ZM19 38H37V36H19V38ZM38 37V23H36V37H38ZM19.1787 24.6155C20.7251 23.518 22.297 22.4202 23.8726 21.3198C25.447 20.2202 27.0251 19.118 28.5787 18.0155L27.4212 16.3844C25.8748 17.4819 24.3029 18.5797 22.7274 19.6801C21.1529 20.7797 19.5748 21.8819 18.0212 22.9844L19.1787 24.6155ZM27.4212 18.0155C28.9748 19.118 30.5529 20.2202 32.1274 21.3198C33.7029 22.4202 35.2748 23.518 36.8212 24.6155L37.9787 22.9844C36.4251 21.8819 34.847 20.7797 33.2726 19.6801C31.697 18.5797 30.1251 17.4819 28.5787 16.3844L27.4212 18.0155ZM19.1787 37.6155C20.7251 36.518 22.297 35.4202 23.8726 34.3198C25.447 33.2202 27.0251 32.118 28.5787 31.0155L27.4212 29.3844C25.8748 30.4819 24.3029 31.5797 22.7274 32.6801C21.1529 33.7797 19.5748 34.8819 18.0212 35.9844L19.1787 37.6155ZM27.4212 31.0155C28.9748 32.118 30.5529 33.2202 32.1274 34.3198C33.7029 35.4202 35.2748 36.518 36.8212 37.6155L37.9787 35.9844C36.4251 34.8819 34.847 33.7797 33.2726 32.6801C31.697 31.5797 30.1251 30.4819 28.5787 29.3844L27.4212 31.0155ZM18.7598 27.5683L24.7598 32.5683L26.0401 31.0318L20.0401 26.0318L18.7598 27.5683ZM35.9598 26.0318L29.9598 31.0318L31.2402 32.5683L37.2402 27.5683L35.9598 26.0318Z" fill="#0065DD"/>
</svg>
