<svg width="16" height="16" viewBox="0 0 16 16" fill="none" xmlns="http://www.w3.org/2000/svg">
<path fill-rule="evenodd" clip-rule="evenodd" d="M3 6.88135C3 4.2373 5.20001 2 8 2C10.8 2 13 4.2373 13 6.88135C13 9.24152 11.2267 10.9254 9.07751 12.9664C8.72635 13.2999 8.36514 13.6429 8 14C7.63486 13.6429 7.27365 13.2999 6.92249 12.9664C4.77322 10.9254 3 9.24152 3 6.88135ZM10.3 7C10.3 8.29999 9.19998 9.29999 8 9.29999C6.79999 9.29999 5.79999 8.20001 5.79999 7C5.79999 5.79999 6.79999 4.79999 8 4.79999C9.19998 4.79999 10.3 5.70001 10.3 7Z" fill="#909EBB"/>
</svg>
