<?xml version="1.0" encoding="utf-8"?>
<!-- Generator: Adobe Illustrator 22.1.0, SVG Export Plug-In . SVG Version: 6.00 Build 0)  -->
<svg version="1.1" id="Layer_1" xmlns="http://www.w3.org/2000/svg" xmlns:xlink="http://www.w3.org/1999/xlink" x="0px" y="0px"
	 viewBox="0 0 34 14" style="enable-background:new 0 0 34 14;" xml:space="preserve">
<style type="text/css">
	.st0{fill:#33405A;}
</style>
<path class="st0" d="M8,2C5.2,2,3,4.2,3,7s2.2,5,5,5c2.8,0,5-2.2,5-5S10.8,2,8,2z M8,14c-3.5,0-6.4-2.6-6.9-6H1C0.4,8,0,7.6,0,7
	s0.4-1,1-1h0.1C1.6,2.6,4.5,0,8,0c2.8,0,5.2,1.6,6.3,4h5.3c1.1-2.4,3.5-4,6.3-4c3.5,0,6.4,2.6,6.9,6H33c0.6,0,1,0.4,1,1s-0.4,1-1,1
	h-0.1c-0.5,3.4-3.4,6-6.9,6c-3.9,0-7-3.1-7-7c0-0.3,0-0.7,0.1-1h-4.1C15,6.3,15,6.7,15,7C15,10.9,11.9,14,8,14z M31,7
	c0-2.8-2.2-5-5-5s-5,2.2-5,5s2.2,5,5,5S31,9.8,31,7z"/>
</svg>
