<svg width="18" height="18" viewBox="0 0 18 18" fill="none" xmlns="http://www.w3.org/2000/svg">
  <path fill-rule="evenodd" clip-rule="evenodd" d="M7.61118 0.666748C3.77588 0.666748 0.666748 3.77588 0.666748 7.61118C0.666748 11.4465 3.77588 14.5556 7.61118 14.5556C9.27873 14.5556 10.809 13.9679 12.0061 12.9882L16.1479 17.13C16.4191 17.4012 16.8588 17.4012 17.13 17.13C17.4012 16.8588 17.4012 16.4191 17.13 16.1479L12.9882 12.0061C13.9679 10.809 14.5556 9.27873 14.5556 7.61118C14.5556 3.77588 11.4465 0.666748 7.61118 0.666748ZM2.05564 7.61118C2.05564 4.54294 4.54294 2.05564 7.61118 2.05564C10.6794 2.05564 13.1667 4.54294 13.1667 7.61118C13.1667 10.6794 10.6794 13.1667 7.61118 13.1667C4.54294 13.1667 2.05564 10.6794 2.05564 7.61118Z" fill="#909EBB"/>
</svg>
