<svg width="16" height="16" viewBox="0 0 16 16" fill="none" xmlns="http://www.w3.org/2000/svg">
<path fill-rule="evenodd" clip-rule="evenodd" d="M7.89999 2C6.24771 2 4.89999 3.34772 4.89999 5C4.89999 6.71405 6.41159 8 8 8C6.56445 8 5.10083 8.42767 3.97113 9.2561C2.82437 10.097 2 11.3767 2 13V14H3H14V12H4.20731C4.40115 11.5624 4.72504 11.1833 5.15387 10.8689C5.89917 10.3223 6.93555 10 8 10V8V6C7.38843 6 6.89999 5.48596 6.89999 5C6.89999 4.45227 7.35226 4 7.89999 4C8.44772 4 8.89999 4.45227 8.89999 5H10.9C10.9 3.34772 9.55228 2 7.89999 2ZM14 8H9V6H14V8ZM9 11H12V9H9V11Z" fill="#FFFFFF"/>
</svg>
