<?xml version="1.0" encoding="utf-8"?>
<svg shape-rendering="geometricPrecision"
     image-rendering="optimizeQuality"
     xmlns="http://www.w3.org/2000/svg"
     viewBox="0 0 330.0 147"
     width="64"
     height="64"
     style="enable-background:new 0 0 110.73 62.2;"
     xml:space="preserve"
>
  <style type="text/css">
    .st0{fill-rule:evenodd;clip-rule:evenodd;fill:#0073AC;}
  </style>
  <g>
    <circle xmlns="http://www.w3.org/2000/svg" cx="50%" cy="50%" r="165" fill="white"/>
    <path class="" d="M298.6 42.1h-21.3c-12.8 0-19.7 10.7-21.4 22.3l-6.1 41.7 77 .1c3.8 0 6.9 3.1 6.9 6.9 0 3.8-3.1 6.9-6.9
     6.9l-85-.1c-2.1 0-3.9-.8-5.2-2.4-1.4-1.6-1.9-3.5-1.6-5.5l7.2-49.6c2.7-18.6 15.2-34.2 35.1-34.2h28.2c3.8 0 6.9
     3.1 6.9 6.9v56.6c0 3.8-3.1 6.9-6.9 6.9-3.8 0-6.9-3.1-6.9-6.9V42.1zM200 84.9h9.6c3.2-6.7 4.8-13.9
     4.8-21.4 0-27.4-22.2-49.6-49.6-49.6s-49.6 22.2-49.6 49.6c0 27.4 22.2 49.6 49.6 49.6h6.9c3.8 0 6.9 3.1 6.9 6.9
     0 3.8-3.1 6.9-6.9 6.9h-6.9c-35.1 0-63.5-28.4-63.5-63.5S129.7 0 164.8 0s63.5 28.4 63.5 63.5c0 11.2-2.9 22.1-8.5
     31.8-1.3 2.2-3.5 3.5-6 3.5h-20.7c-3.8 0-6.9-3.1-6.9-6.9V63.6c0-11.8-9.5-21.3-21.3-21.3s-21.3 9.5-21.3 21.3 9.6
     21.3 21.3 21.4l7.1-.1c3.8 0 7 3 7 6.8s-3 7-6.9 7l-7.1.1h-.1c-19.4-.1-35.2-15.8-35.2-35.3 0-19.4 15.7-35.2
     35.2-35.2 19.4 0 35.2 15.8 35.2 35.2l-.1 21.4zm-164.2 14V113c0 3.8-3.1 6.9-6.9 6.9-3.8 0-6.9-3.1-6.9-6.9V98.9H7.8C4
     98.9.9 95.8.9 92c0-3.8 3.1-6.9 6.9-6.9h49.5c11.8 0 21.3-9.8 21.3-21.5 0-11.8-9.5-21.3-21.3-21.3H35.8v28.5c0 3.8-3.1
     6.9-6.9 6.9-3.8 0-6.9-3.1-6.9-6.9V35.2c0-3.8 3.1-6.9 6.9-6.9h28.3c19.4 0 35.2 15.8 35.2 35.2 0 19.4-15.7 35.4-35.1
     35.4H35.8z" fill="#007eee"/>

  </g>
</svg>
