<svg xmlns="http://www.w3.org/2000/svg" xmlns:xlink="http://www.w3.org/1999/xlink" width="64" height="64" viewBox="0 0 64 64">
  <defs>
    <clipPath id="clip-_162x162_1">
      <rect width="64" height="64" id="svg_1"/>
    </clipPath>
  </defs>
  <g id="_162x162_1" data-name="162x162 – 1" clip-path="url(#clip-_162x162_1)">
    <circle cx="32" cy="32" r="32" fill="#fff"/>
    <g id="Открытая_часть_-_логотип_без_доп_надписей" data-name="Открытая часть - логотип без доп надписей" transform="translate(-295.316 -37.793)">
      <g id="Group_1380" data-name="Group 1380" transform="translate(303.301 45.789)">
        <path id="Path_1036" data-name="Path 1036" d="M324.985,65.574H303.3a23.993,23.993,0,0,0,.915,4.642h12.846L308.7,78.581a24.389,24.389,0,0,0,3.282,3.282l8.365-8.365V86.344a23.993,23.993,0,0,0,4.642.915Z" transform="translate(-303.301 -39.115)" fill="#0060ac"/>
        <path id="Path_1037" data-name="Path 1037" d="M319.272,56.131" transform="translate(-297.914 -42.301)" fill="#0060ac"/>
        <path id="Path_1038" data-name="Path 1038" d="M305.076,56.131" transform="translate(-302.702 -42.301)" fill="#0060ac"/>
        <path id="Path_1039" data-name="Path 1039" d="M319.272,56.131" transform="translate(-297.914 -42.301)" fill="#0060ac"/>
        <path id="Path_1040" data-name="Path 1040" d="M305.076,56.131" transform="translate(-302.702 -42.301)" fill="#0060ac"/>
        <path id="Path_1041" data-name="Path 1041" d="M344.67,65.574H322.986V87.258a24.064,24.064,0,0,0,4.639-.913V72.053h0V70.216h11.217a19.546,19.546,0,0,1-4,6.348v6.173a24.2,24.2,0,0,0,8.912-12.521h0c.009-.029.016-.06.025-.091.088-.3.17-.594.247-.895.02-.08.042-.16.06-.241q.118-.479.217-.964c.017-.087.032-.174.049-.259q.078-.413.143-.832c.012-.079.025-.156.036-.235.037-.258.071-.516.1-.777h-.005C344.642,65.805,344.66,65.69,344.67,65.574Z" transform="translate(-296.661 -39.115)" fill="#0060ac"/>
        <path id="Path_1042" data-name="Path 1042" d="M327.3,45.789a24.115,24.115,0,0,0-23.987,21.957H319.7l2.584-4.624H309.054a19.462,19.462,0,0,1,1.543-3.214h13.485l2.585-4.624H314.442a19.412,19.412,0,0,1,25.719,0H327.935l2.585,4.624h13.485a19.462,19.462,0,0,1,1.543,3.214H332.316l2.585,4.624h16.387A24.116,24.116,0,0,0,327.3,45.789Z" transform="translate(-303.297 -45.789)" fill="#0060ac"/>
      </g>
    </g>
  </g>
</svg>
