<svg width="64" height="64" viewBox="0 0 64 64" fill="none" xmlns="http://www.w3.org/2000/svg">
<circle cx="32" cy="32" r="32" fill="white"/>
<path d="M45.9471 21.2487C46.7808 22.3256 47.4756 23.5067 48.0661 24.7572L32.0174 36.6027L25.2783 32.3647V27.2931L31.9827 31.4963L45.9471 21.2487Z" fill="#21A038"/>
<path d="M18.435 32.0174C18.435 31.7742 18.435 31.5658 18.4698 31.3226L14.4055 31.1142C14.4055 31.3921 14.3707 31.7047 14.3707 31.9826C14.3707 36.8459 16.3508 41.2576 19.5466 44.4534L22.4298 41.5702C19.9635 39.1386 18.435 35.769 18.435 32.0174Z" fill="url(#paint0_linear)"/>
<path d="M31.9826 18.4692C32.2258 18.4692 32.4342 18.4692 32.6773 18.504L32.8858 14.4397C32.6079 14.4397 32.2952 14.405 32.0173 14.405C27.1541 14.405 22.7424 16.385 19.5466 19.5808L22.4298 22.4641C24.8614 19.9977 28.2657 18.4692 31.9826 18.4692Z" fill="url(#paint1_linear)"/>
<path d="M31.9826 45.565C31.7394 45.565 31.531 45.565 31.2878 45.5302L31.0794 49.5945C31.3573 49.5945 31.6699 49.6293 31.9478 49.6293C36.8111 49.6293 41.2228 47.6492 44.4186 44.4534L41.5354 41.5702C39.1038 44.0713 35.7342 45.565 31.9826 45.565Z" fill="url(#paint2_linear)"/>
<path d="M39.6249 20.8319L43.0639 18.2961C40.0417 15.8644 36.1859 14.3707 31.9826 14.3707V18.435C34.8311 18.4698 37.4712 19.3382 39.6249 20.8319Z" fill="url(#paint3_linear)"/>
<path d="M49.6293 32.0174C49.6293 30.9405 49.5251 29.8984 49.3514 28.8563L45.5651 31.67C45.5651 31.7742 45.5651 31.9132 45.5651 32.0174C45.5651 36.0122 43.8282 39.5902 41.0839 42.0565L43.8282 45.0787C47.3714 41.8828 49.6293 37.1933 49.6293 32.0174Z" fill="#21A038"/>
<path d="M31.9826 45.565C27.9878 45.565 24.4098 43.8281 21.9435 41.0838L18.9213 43.8281C22.1519 47.4061 26.8067 49.6293 31.9826 49.6293V45.565Z" fill="url(#paint4_linear)"/>
<path d="M22.9162 21.9782L20.1719 18.9561C16.5939 22.1867 14.3707 26.8415 14.3707 32.0174H18.435C18.435 28.0573 20.1719 24.4446 22.9162 21.9782Z" fill="url(#paint5_linear)"/>
<defs>
<linearGradient id="paint0_linear" x1="19.1262" y1="43.9589" x2="14.9663" y2="31.9728" gradientUnits="userSpaceOnUse">
<stop offset="0.1444" stop-color="#F2E913"/>
<stop offset="0.3037" stop-color="#E7E518"/>
<stop offset="0.5823" stop-color="#CADB26"/>
<stop offset="0.891" stop-color="#A3CD39"/>
</linearGradient>
<linearGradient id="paint1_linear" x1="20.7051" y1="19.1096" x2="31.2497" y2="15.1042" gradientUnits="userSpaceOnUse">
<stop offset="0.0592" stop-color="#0FA8E0"/>
<stop offset="0.5385" stop-color="#0099F9"/>
<stop offset="0.9234" stop-color="#0291EB"/>
</linearGradient>
<linearGradient id="paint2_linear" x1="30.8408" y1="46.1623" x2="43.4051" y2="43.3317" gradientUnits="userSpaceOnUse">
<stop offset="0.1226" stop-color="#A3CD39"/>
<stop offset="0.2846" stop-color="#86C339"/>
<stop offset="0.8693" stop-color="#21A038"/>
</linearGradient>
<linearGradient id="paint3_linear" x1="31.1476" y1="16.9711" x2="41.5977" y2="20.1851" gradientUnits="userSpaceOnUse">
<stop offset="0.0566" stop-color="#0291EB"/>
<stop offset="0.79" stop-color="#0C8ACB"/>
</linearGradient>
<linearGradient id="paint4_linear" x1="19.9547" y1="44.4883" x2="31.1773" y2="48.668" gradientUnits="userSpaceOnUse">
<stop offset="0.1324" stop-color="#F2E913"/>
<stop offset="0.2977" stop-color="#EBE716"/>
<stop offset="0.5306" stop-color="#D9E01F"/>
<stop offset="0.8023" stop-color="#BBD62D"/>
<stop offset="0.9829" stop-color="#A3CD39"/>
</linearGradient>
<linearGradient id="paint5_linear" x1="17.4633" y1="32.5083" x2="21.9613" y2="20.8447" gradientUnits="userSpaceOnUse">
<stop offset="0.0698" stop-color="#A3CD39"/>
<stop offset="0.2599" stop-color="#81C55F"/>
<stop offset="0.9216" stop-color="#0FA8E0"/>
</linearGradient>
</defs>
</svg>
